<svg width="288" height="65" viewBox="0 0 288 65" xmlns="http://www.w3.org/2000/svg">
    <g clip-path="url(#clip0_5_29)">
        <path d="M31.9231 32.5072C31.9231 31.5595 31.5409 30.6507 30.8606 29.9807C30.1803 29.3106 29.2577 28.9342 28.2956 28.9342H0.20476C-0.0682533 31.3086 -0.0682533 33.7057 0.20476 36.0801H28.2956C29.2577 36.0801 30.1803 35.7037 30.8606 35.0336C31.5409 34.3636 31.9231 33.4548 31.9231 32.5072Z" fill="#00AEC6" />
        <path d="M33.004 1.60824e-05C28.2928 -0.00460731 23.6355 0.987679 19.3473 2.90972C15.0591 4.83177 11.2402 7.63872 8.14885 11.1406H28.2956C34.0487 11.1406 39.5662 13.3917 43.6342 17.3987C47.7023 21.4057 49.9877 26.8404 49.9877 32.5072C49.9877 38.1739 47.7023 43.6086 43.6342 47.6156C39.5662 51.6226 34.0487 53.8737 28.2956 53.8737H8.14885C11.7795 57.9701 16.3956 61.1037 21.5744 62.9875C26.7532 64.8713 32.3291 65.445 37.7913 64.6562C43.2535 63.8674 48.4275 61.7412 52.8393 58.4723C57.2511 55.2035 60.7597 50.8965 63.0437 45.9459C65.3277 40.9954 66.3141 35.5594 65.9126 30.136C65.511 24.7127 63.7344 19.4752 60.7453 14.9034C57.7562 10.3316 53.6503 6.57167 48.8037 3.96792C43.9571 1.36418 38.5247 -0.000114262 33.004 1.60824e-05Z" fill="#00AEC6" />
        <path d="M43.9807 32.5072C43.9768 28.4121 42.3226 24.4861 39.3815 21.5918C36.4404 18.6976 32.453 17.0718 28.2956 17.0718H3.95553C2.9219 18.9639 2.0834 20.9533 1.4526 23.0101H28.2956C30.8528 23.0101 33.3052 24.0107 35.1134 25.7917C36.9215 27.5728 37.9374 29.9884 37.9374 32.5072C37.9374 35.0259 36.9215 37.4415 35.1134 39.2226C33.3052 41.0036 30.8528 42.0042 28.2956 42.0042H1.4526C2.08805 44.0616 2.93142 46.0509 3.97004 47.9425H28.2956C32.453 47.9425 36.4404 46.3167 39.3815 43.4225C42.3226 40.5282 43.9768 36.6022 43.9807 32.5072Z" fill="#00AEC6" />
        <path d="M86 12.016H100.172C102.819 12.0232 105.454 12.3736 108.016 13.0589C110.58 13.7212 112.994 14.8894 115.123 16.4983C117.287 18.168 119.045 20.3271 120.261 22.8075C121.669 25.8279 122.347 29.1513 122.238 32.4969C122.322 35.7 121.643 38.8759 120.261 41.7499C119.026 44.2323 117.272 46.4044 115.123 48.1109C112.999 49.7869 110.589 51.0412 108.016 51.8091C105.469 52.5822 102.828 52.9807 100.172 52.9926H86V12.016ZM99.039 46.6168C100.903 46.6146 102.76 46.3912 104.574 45.9511C106.36 45.5412 108.054 44.7883 109.567 43.7322C111.089 42.6112 112.326 41.1324 113.175 39.42C114.201 37.2811 114.696 34.916 114.618 32.5339C114.704 30.0584 114.209 27.5979 113.175 25.3593C112.344 23.6284 111.104 22.1384 109.567 21.025C108.06 19.9726 106.362 19.243 104.574 18.88C102.752 18.4978 100.898 18.3045 99.039 18.3031H93.122V46.6168H99.039Z" fill="#1D1D1B" />
        <path d="M129.201 32.3786C129.156 29.3397 129.703 26.3222 130.81 23.5028C131.814 20.958 133.334 18.6612 135.27 16.7646C137.216 14.8777 139.52 13.4201 142.038 12.482C144.778 11.4649 147.675 10.9638 150.589 11.0027C153.539 10.9582 156.472 11.4593 159.248 12.482C161.758 13.4284 164.055 14.8851 166.002 16.7646C167.951 18.6557 169.481 20.9535 170.49 23.5028C171.597 26.3222 172.144 29.3397 172.099 32.3786C172.138 35.3809 171.591 38.3608 170.49 41.1434C169.47 43.7125 167.942 46.037 166.002 47.9704C164.037 49.9002 161.716 51.4089 159.176 52.4083C156.413 53.4928 153.475 54.0323 150.517 53.9985C147.594 54.0279 144.692 53.4883 141.966 52.4083C139.443 51.4084 137.141 49.8992 135.198 47.9704C133.271 46.0316 131.753 43.708 130.738 41.1434C129.662 38.3557 129.14 35.3759 129.201 32.3786ZM136.929 32.3786C136.907 34.4394 137.242 36.4879 137.918 38.4289C138.538 40.2069 139.5 41.8393 140.747 43.2292C141.961 44.5759 143.435 45.6489 145.076 46.3801C146.83 47.1518 148.723 47.5373 150.632 47.5118C152.55 47.5358 154.452 47.1504 156.217 46.3801C157.875 45.6569 159.365 44.5832 160.59 43.2292C161.829 41.8455 162.787 40.224 163.411 38.4585C164.087 36.5175 164.422 34.469 164.4 32.4082C164.419 30.3909 164.085 28.3866 163.411 26.491C162.784 24.7386 161.834 23.1264 160.612 21.7424C159.401 20.384 157.926 19.3005 156.282 18.5619C154.502 17.7738 152.579 17.3806 150.639 17.4081C148.709 17.3789 146.795 17.7723 145.026 18.5619C143.384 19.3058 141.911 20.3885 140.696 21.7424C139.476 23.1268 138.528 24.739 137.903 26.491C137.231 28.3768 136.894 30.3708 136.908 32.3786H136.929Z" fill="#1D1D1B" />
        <path d="M180.989 12.016H192.109L202.492 41.1138H202.666L212.905 12.016H224.082V52.9778H217.025V20.056H216.91L204.809 52.9778H199.837L187.873 20.056H187.765V52.9778H180.989V12.016Z" fill="#1D1D1B" />
        <path d="M234.891 12.016H241.999V52.9778H234.891V12.016Z" fill="#1D1D1B" />
        <path d="M252.78 12.016H262.203L280.77 42.6819H280.885V12.016H288V52.9778H278.966L260.003 21.3282H259.894V52.9778H252.78V12.016Z" fill="#1D1D1B" />
        <path d="M86 12.016H100.172C102.819 12.0232 105.454 12.3736 108.016 13.0589C110.58 13.7212 112.994 14.8894 115.123 16.4983C117.287 18.168 119.045 20.3271 120.261 22.8075C121.669 25.8279 122.347 29.1513 122.238 32.4969C122.322 35.7 121.643 38.8759 120.261 41.7499C119.026 44.2323 117.272 46.4044 115.123 48.1109C112.999 49.7869 110.589 51.0412 108.016 51.8091C105.469 52.5822 102.828 52.9807 100.172 52.9926H86V12.016ZM99.039 46.6168C100.903 46.6146 102.76 46.3912 104.574 45.9511C106.36 45.5412 108.054 44.7883 109.567 43.7322C111.089 42.6112 112.326 41.1324 113.175 39.42C114.201 37.2811 114.696 34.916 114.618 32.5339C114.704 30.0584 114.209 27.5979 113.175 25.3593C112.344 23.6284 111.104 22.1384 109.567 21.025C108.06 19.9726 106.362 19.243 104.574 18.88C102.752 18.4978 100.898 18.3045 99.039 18.3031H93.122V46.6168H99.039Z" stroke="#010101" stroke-width="2" stroke-miterlimit="10" />
        <path d="M129.201 32.3786C129.156 29.3397 129.703 26.3222 130.81 23.5028C131.814 20.958 133.334 18.6612 135.27 16.7646C137.216 14.8777 139.52 13.4201 142.038 12.482C144.778 11.4649 147.675 10.9638 150.589 11.0027C153.539 10.9582 156.472 11.4593 159.248 12.482C161.758 13.4284 164.055 14.8851 166.002 16.7646C167.951 18.6557 169.481 20.9535 170.49 23.5028C171.597 26.3222 172.144 29.3397 172.099 32.3786C172.138 35.3809 171.591 38.3608 170.49 41.1434C169.47 43.7125 167.942 46.037 166.002 47.9704C164.037 49.9002 161.716 51.4089 159.176 52.4083C156.413 53.4928 153.475 54.0323 150.517 53.9985C147.594 54.0279 144.692 53.4883 141.966 52.4083C139.443 51.4084 137.141 49.8992 135.198 47.9704C133.271 46.0316 131.753 43.708 130.738 41.1434C129.662 38.3557 129.14 35.3759 129.201 32.3786ZM136.929 32.3786C136.907 34.4394 137.242 36.4879 137.918 38.4289C138.538 40.2069 139.5 41.8393 140.747 43.2292C141.961 44.5759 143.435 45.6489 145.076 46.3801C146.83 47.1518 148.723 47.5373 150.632 47.5118C152.55 47.5358 154.452 47.1504 156.217 46.3801C157.875 45.6569 159.365 44.5832 160.59 43.2292C161.829 41.8455 162.787 40.224 163.411 38.4585C164.087 36.5175 164.422 34.469 164.4 32.4082C164.419 30.3909 164.085 28.3866 163.411 26.491C162.784 24.7386 161.834 23.1264 160.612 21.7424C159.401 20.384 157.926 19.3005 156.282 18.5619C154.502 17.7738 152.579 17.3806 150.639 17.4081C148.709 17.3789 146.795 17.7723 145.026 18.5619C143.384 19.3058 141.911 20.3885 140.696 21.7424C139.476 23.1268 138.528 24.739 137.903 26.491C137.231 28.3768 136.894 30.3708 136.908 32.3786H136.929Z" stroke="#010101" stroke-width="2" stroke-miterlimit="10" />
        <path d="M180.989 12.016H192.109L202.492 41.1138H202.666L212.905 12.016H224.082V52.9778H217.025V20.056H216.91L204.809 52.9778H199.837L187.873 20.056H187.765V52.9778H180.989V12.016Z" stroke="#010101" stroke-width="2" stroke-miterlimit="10" />
        <path d="M234.891 12.016H241.999V52.9778H234.891V12.016Z" stroke="#010101" stroke-width="2" stroke-miterlimit="10" />
        <path d="M252.78 12.016H262.203L280.77 42.6819H280.885V12.016H288V52.9778H278.966L260.003 21.3282H259.894V52.9778H252.78V12.016Z" stroke="#010101" stroke-width="2" stroke-miterlimit="10" />
    </g>
    <defs>
        <clipPath id="clip0_5_29">
            <rect width="288" height="65" fill="white" />
        </clipPath>
    </defs>
</svg>