<svg width="388" height="388" viewBox="0 0 388 388" fill="none" xmlns="http://www.w3.org/2000/svg">
<path d="M388 194C388 301.143 301.143 388 194 388C86.8568 388 0 301.143 0 194C0 86.8568 86.8568 0 194 0C301.143 0 388 86.8568 388 194Z" fill="#D9D9D9"/>
<path d="M62.989 292.577V98.1241H84.0161V273.435H173.719V292.577H62.989Z" fill="black"/>
<path d="M290.974 293C283.918 293 277.823 291.422 272.691 288.267C267.666 285.111 263.764 280.567 260.984 274.635C258.311 268.576 256.974 261.444 256.974 253.24V190.76C256.974 182.429 258.311 175.298 260.984 169.365C263.764 163.433 267.666 158.889 272.691 155.733C277.823 152.578 283.918 151 290.974 151C298.031 151 304.072 152.578 309.097 155.733C314.229 158.889 318.132 163.433 320.805 169.365C323.585 175.298 324.974 182.366 324.974 190.571V253.24C324.974 261.444 323.585 268.576 320.805 274.635C318.132 280.567 314.229 285.111 309.097 288.267C304.072 291.422 298.031 293 290.974 293ZM290.974 277.664C297.283 277.664 302.094 275.581 305.408 271.416C308.83 267.124 310.54 261.066 310.54 253.24V190.76C310.54 182.934 308.83 176.939 305.408 172.773C302.094 168.482 297.283 166.336 290.974 166.336C284.773 166.336 279.962 168.482 276.54 172.773C273.119 176.939 271.408 182.934 271.408 190.76V253.24C271.408 261.066 273.119 267.124 276.54 271.416C279.962 275.581 284.773 277.664 290.974 277.664Z" fill="black"/>
<path d="M127.974 237C120.918 237 114.823 235.422 109.691 232.267C104.666 229.111 100.764 224.567 97.9838 218.635C95.3109 212.576 93.9744 205.444 93.9744 197.24V134.76C93.9744 126.429 95.3109 119.298 97.9838 113.365C100.764 107.433 104.666 102.889 109.691 99.7333C114.823 96.5778 120.918 95 127.974 95C135.031 95 141.072 96.5778 146.097 99.7333C151.229 102.889 155.132 107.433 157.805 113.365C160.584 119.298 161.974 126.366 161.974 134.571V197.24C161.974 205.444 160.584 212.576 157.805 218.635C155.132 224.567 151.229 229.111 146.097 232.267C141.072 235.422 135.031 237 127.974 237ZM127.974 221.664C134.283 221.664 139.094 219.581 142.408 215.416C145.83 211.124 147.54 205.066 147.54 197.24V134.76C147.54 126.934 145.83 120.939 142.408 116.773C139.094 112.482 134.283 110.336 127.974 110.336C121.773 110.336 116.962 112.482 113.54 116.773C110.119 120.939 108.408 126.934 108.408 134.76V197.24C108.408 205.066 110.119 211.124 113.54 215.416C116.962 219.581 121.773 221.664 127.974 221.664Z" fill="black"/>
<path d="M213.062 292.577C205.047 292.577 198.065 290.386 192.115 286.005C186.287 281.624 181.733 275.315 178.455 267.078C175.298 258.666 173.719 248.765 173.719 237.374V150.626C173.719 139.06 175.298 129.158 178.455 120.922C181.733 112.685 186.287 106.376 192.115 101.995C198.065 97.6139 205.047 95.4234 213.062 95.4234C213.163 95.4234 286.264 95.4237 286.365 95.4244C294.251 95.4813 301.071 97.7592 306.826 102.258C312.654 106.639 317.147 112.948 320.304 121.185C323.462 129.421 325.04 139.235 325.04 150.626H308.647C308.647 139.761 306.644 131.437 302.637 125.654C298.806 119.779 293.382 116.801 286.365 116.718C286.264 116.717 213.163 116.716 213.062 116.716C205.897 116.716 200.251 119.607 196.122 125.391C192.115 131.174 190.112 139.498 190.112 150.363V237.374C190.112 248.239 192.115 256.651 196.122 262.609C200.251 268.568 205.897 271.547 213.062 271.547C220.226 271.547 225.751 268.568 229.637 262.609C233.644 256.651 235.647 248.239 235.647 237.374V213.715H208.69V192.16H252.04V237.374C252.04 248.59 250.462 258.403 247.304 266.815C244.147 275.052 239.654 281.448 233.826 286.005C227.997 290.386 221.076 292.577 213.062 292.577Z" fill="black"/>
</svg>
