<svg width="305" height="305" viewBox="0 0 305 305" fill="none" xmlns="http://www.w3.org/2000/svg">
<path d="M147.523 152.534C147.523 148.087 145.757 143.823 142.613 140.678C139.47 137.534 135.206 135.768 130.76 135.768H0.946239C-0.315413 146.909 -0.315413 158.158 0.946239 169.299H130.76C135.206 169.299 139.47 167.533 142.613 164.389C145.757 161.244 147.523 156.98 147.523 152.534Z" fill="#00AEC6"/>
<path d="M152.519 7.54635e-05C130.747 -0.0216189 109.224 4.6345 89.4079 13.6533C69.5914 22.6721 51.9432 35.8432 37.6575 52.2752H130.76C157.346 52.2752 182.844 62.8381 201.643 81.6402C220.442 100.442 231.004 125.943 231.004 152.534C231.004 179.124 220.442 204.625 201.643 223.427C182.844 242.229 157.346 252.792 130.76 252.792H37.6575C54.4356 272.013 75.7677 286.717 99.6999 295.557C123.632 304.396 149.4 307.088 174.642 303.387C199.884 299.685 223.794 289.708 244.182 274.37C264.57 259.032 280.784 238.822 291.338 215.592C301.893 192.363 306.452 166.856 304.596 141.408C302.74 115.959 294.53 91.3836 280.717 69.9314C266.904 48.4792 247.93 30.8363 225.532 18.6187C203.135 6.40113 178.031 -0.000536154 152.519 7.54635e-05Z" fill="#00AEC6"/>
<path d="M203.244 152.534C203.226 133.318 195.582 114.896 181.99 101.316C168.399 87.7347 149.972 80.1061 130.76 80.1061H18.2793C13.5027 88.9845 9.62783 98.3193 6.71276 107.971H130.76C142.577 107.971 153.91 112.666 162.266 121.023C170.622 129.38 175.317 140.715 175.317 152.534C175.317 164.352 170.622 175.687 162.266 184.044C153.91 192.401 142.577 197.097 130.76 197.097H6.71276C9.64931 206.75 13.5467 216.085 18.3464 224.961H130.76C149.972 224.961 168.399 217.332 181.99 203.752C195.582 190.171 203.226 171.749 203.244 152.534Z" fill="#00AEC6"/>
</svg>
