<svg width="282" height="61" viewBox="0 0 282 61" fill="none" xmlns="http://www.w3.org/2000/svg">
<path d="M1 2.37368H20.64C24.3083 2.38337 27.9606 2.85713 31.51 3.78368C35.0642 4.67907 38.4099 6.25851 41.36 8.43369C44.3583 10.6911 46.7949 13.6102 48.48 16.9637C50.4313 21.0472 51.3711 25.5404 51.22 30.0637C51.3359 34.3943 50.3954 38.688 48.48 42.5737C46.7691 45.9298 44.3379 48.8665 41.36 51.1737C38.417 53.4396 35.0762 55.1354 31.51 56.1737C27.9807 57.2189 24.3208 57.7576 20.64 57.7737H1V2.37368ZM19.07 49.1537C21.6528 49.1506 24.2266 48.8486 26.74 48.2537C29.2154 47.6995 31.5634 46.6816 33.66 45.2537C35.7688 43.7381 37.4834 41.7388 38.66 39.4237C40.0815 36.5318 40.7684 33.3342 40.66 30.1137C40.7797 26.7668 40.0938 23.4402 38.66 20.4137C37.5087 18.0736 35.7897 16.059 33.66 14.5537C31.5721 13.1309 29.2184 12.1445 26.74 11.6537C24.216 11.137 21.6464 10.8757 19.07 10.8737H10.87V49.1537H19.07Z"/>
<path d="M60.87 29.9037C60.8076 25.7952 61.5657 21.7155 63.1 17.9037C64.4908 14.4632 66.5974 11.3578 69.28 8.79368C71.9779 6.24259 75.1703 4.27198 78.66 3.00369C82.4573 1.6286 86.4718 0.95105 90.51 1.00369C94.5977 0.943492 98.6628 1.621 102.51 3.00369C105.988 4.28324 109.172 6.25268 111.87 8.79368C114.571 11.3505 116.692 14.4571 118.09 17.9037C119.624 21.7155 120.382 25.7952 120.32 29.9037C120.373 33.9628 119.615 37.9917 118.09 41.7537C116.677 45.227 114.559 48.3698 111.87 50.9837C109.147 53.5928 105.931 55.6326 102.41 56.9837C98.5812 58.4499 94.5097 59.1794 90.41 59.1337C86.3595 59.1735 82.3383 58.4439 78.56 56.9837C75.0632 55.6318 71.8735 53.5915 69.18 50.9837C66.5099 48.3625 64.4065 45.221 63 41.7537C61.5089 37.9847 60.7848 33.956 60.87 29.9037ZM71.58 29.9037C71.5494 32.6899 72.0132 35.4595 72.95 38.0837C73.8091 40.4876 75.1421 42.6945 76.87 44.5737C78.553 46.3943 80.5963 47.845 82.87 48.8337C85.3013 49.877 87.9245 50.3982 90.57 50.3637C93.2282 50.3962 95.8641 49.8751 98.31 48.8337C100.607 47.8559 102.672 46.4043 104.37 44.5737C106.086 42.7029 107.415 40.5107 108.28 38.1237C109.217 35.4995 109.681 32.7299 109.65 29.9437C109.677 27.2164 109.213 24.5066 108.28 21.9437C107.411 19.5745 106.093 17.3948 104.4 15.5237C102.722 13.6871 100.678 12.2223 98.4 11.2237C95.9325 10.1581 93.2675 9.6265 90.58 9.66369C87.9052 9.62425 85.2528 10.1561 82.8 11.2237C80.5257 12.2294 78.4832 13.6932 76.8 15.5237C75.1098 17.3954 73.7958 19.5751 72.93 21.9437C71.9984 24.4933 71.531 27.1892 71.55 29.9037H71.58Z"/>
<path d="M132.64 2.37368H148.05L162.44 41.7137H162.68L176.87 2.37368H192.36V57.7537H182.58V13.2437H182.42L165.65 57.7537H158.76L142.18 13.2437H142.03V57.7537H132.64V2.37368Z"/>
<path d="M207.34 2.37368H217.19V57.7537H207.34V2.37368Z"/>
<path d="M232.13 2.37368H245.19L270.92 43.8337H271.08V2.37368H280.94V57.7537H268.42L242.14 14.9637H241.99V57.7537H232.13V2.37368Z"/>
<path d="M1 2.37368H20.64C24.3083 2.38337 27.9606 2.85713 31.51 3.78368C35.0642 4.67907 38.4099 6.25851 41.36 8.43369C44.3583 10.6911 46.7949 13.6102 48.48 16.9637C50.4313 21.0472 51.3711 25.5404 51.22 30.0637C51.3359 34.3943 50.3954 38.688 48.48 42.5737C46.7691 45.9298 44.3379 48.8665 41.36 51.1737C38.417 53.4396 35.0762 55.1354 31.51 56.1737C27.9807 57.2189 24.3208 57.7576 20.64 57.7737H1V2.37368ZM19.07 49.1537C21.6528 49.1506 24.2266 48.8486 26.74 48.2537C29.2154 47.6995 31.5634 46.6816 33.66 45.2537C35.7688 43.7381 37.4834 41.7388 38.66 39.4237C40.0815 36.5318 40.7684 33.3342 40.66 30.1137C40.7797 26.7668 40.0938 23.4402 38.66 20.4137C37.5087 18.0736 35.7897 16.059 33.66 14.5537C31.5721 13.1309 29.2184 12.1445 26.74 11.6537C24.216 11.137 21.6464 10.8757 19.07 10.8737H10.87V49.1537H19.07Z" stroke-width="2" stroke-miterlimit="10"/>
<path d="M60.87 29.9037C60.8076 25.7952 61.5657 21.7155 63.1 17.9037C64.4908 14.4632 66.5974 11.3578 69.28 8.79368C71.9779 6.24259 75.1703 4.27198 78.66 3.00369C82.4573 1.6286 86.4718 0.95105 90.51 1.00369C94.5977 0.943492 98.6628 1.621 102.51 3.00369C105.988 4.28324 109.172 6.25268 111.87 8.79368C114.571 11.3505 116.692 14.4571 118.09 17.9037C119.624 21.7155 120.382 25.7952 120.32 29.9037C120.373 33.9628 119.615 37.9917 118.09 41.7537C116.677 45.227 114.559 48.3698 111.87 50.9837C109.147 53.5928 105.931 55.6326 102.41 56.9837C98.5812 58.4499 94.5097 59.1794 90.41 59.1337C86.3595 59.1735 82.3383 58.4439 78.56 56.9837C75.0632 55.6318 71.8735 53.5915 69.18 50.9837C66.5099 48.3625 64.4065 45.221 63 41.7537C61.5089 37.9847 60.7848 33.956 60.87 29.9037ZM71.58 29.9037C71.5494 32.6899 72.0132 35.4595 72.95 38.0837C73.8091 40.4876 75.1421 42.6945 76.87 44.5737C78.553 46.3943 80.5963 47.845 82.87 48.8337C85.3013 49.877 87.9245 50.3982 90.57 50.3637C93.2282 50.3962 95.8641 49.8751 98.31 48.8337C100.607 47.8559 102.672 46.4043 104.37 44.5737C106.086 42.7029 107.415 40.5107 108.28 38.1237C109.217 35.4995 109.681 32.7299 109.65 29.9437C109.677 27.2164 109.213 24.5066 108.28 21.9437C107.411 19.5745 106.093 17.3948 104.4 15.5237C102.722 13.6871 100.678 12.2223 98.4 11.2237C95.9325 10.1581 93.2675 9.6265 90.58 9.66369C87.9052 9.62425 85.2528 10.1561 82.8 11.2237C80.5257 12.2294 78.4832 13.6932 76.8 15.5237C75.1098 17.3954 73.7958 19.5751 72.93 21.9437C71.9984 24.4933 71.531 27.1892 71.55 29.9037H71.58Z" stroke-width="2" stroke-miterlimit="10"/>
<path d="M132.64 2.37368H148.05L162.44 41.7137H162.68L176.87 2.37368H192.36V57.7537H182.58V13.2437H182.42L165.65 57.7537H158.76L142.18 13.2437H142.03V57.7537H132.64V2.37368Z" stroke-width="2" stroke-miterlimit="10"/>
<path d="M207.34 2.37368H217.19V57.7537H207.34V2.37368Z" stroke-width="2" stroke-miterlimit="10"/>
<path d="M232.13 2.37368H245.19L270.92 43.8337H271.08V2.37368H280.94V57.7537H268.42L242.14 14.9637H241.99V57.7537H232.13V2.37368Z" stroke-width="2" stroke-miterlimit="10"/>
</svg>
