<svg viewBox="0 0 16 16" fill="none" xmlns="http://www.w3.org/2000/svg">
<mask id="path-1-inside-1_29_5" fill="white">
<path d="M16 8C16 12.4183 12.4183 16 8 16C3.58172 16 0 12.4183 0 8C0 3.58172 3.58172 0 8 0C12.4183 0 16 3.58172 16 8Z"/>
</mask>
<path d="M2.64645 7.64644C2.45118 7.84171 2.45118 8.15829 2.64645 8.35355L5.82843 11.5355C6.02369 11.7308 6.34027 11.7308 6.53553 11.5355C6.7308 11.3403 6.7308 11.0237 6.53553 10.8284L3.70711 8L6.53553 5.17157C6.7308 4.97631 6.7308 4.65973 6.53553 4.46446C6.34027 4.2692 6.02369 4.2692 5.82843 4.46446L2.64645 7.64644ZM12 7.5L3 7.5L3 8.5L12 8.5L12 7.5ZM15 8C15 11.866 11.866 15 8 15V17C12.9706 17 17 12.9706 17 8H15ZM8 15C4.13401 15 1 11.866 1 8H-1C-1 12.9706 3.02944 17 8 17V15ZM1 8C1 4.13401 4.13401 1 8 1V-1C3.02944 -1 -1 3.02944 -1 8H1ZM8 1C11.866 1 15 4.13401 15 8H17C17 3.02944 12.9706 -1 8 -1V1Z" fill="black" mask="url(#path-1-inside-1_29_5)"/>
</svg>
