<svg viewBox="0 0 35 26" fill="none" xmlns="http://www.w3.org/2000/svg">
<path d="M3.3354 13.1149H6.61957M3.3354 18.1506H6.61957M11.7283 15.0854V9.68478M11.7283 3.18944H6.61957V20.9239H14.5745M11.7283 3.18944V9.68478M11.7283 3.18944H13.0419V1H5.23292V3.18944M14.5745 20.9239V9.68478M14.5745 20.9239L18.0776 24.5H18.6615M14.5745 9.68478H11.7283M14.5745 9.68478L18.0776 6.18168H18.6615M30.1925 24.5L33.4767 22.0186V8.59006L30.1925 6.18168M30.1925 24.5H18.6615M30.1925 24.5V6.18168M30.1925 6.18168H18.6615M18.6615 24.5V8.22516M18.6615 6.18168V8.22516M18.6615 8.22516H28.368M18.6615 11.1444H28.368M18.6615 13.7717H28.368M18.6615 16.691H28.368M18.6615 19.6102H28.368M18.6615 22.5295H28.368M3.3354 11.5823H1V19.6102H3.3354V11.5823Z" stroke-width="1.1677"/>
</svg>
