<svg viewBox="0 0 34 34" fill="none" xmlns="http://www.w3.org/2000/svg">
<path d="M2.72489 18.8992H5.55158M2.72489 25.1361H5.55158M11.9152 21.3398V14.6509M11.9152 4.77835H5.55158M11.9152 4.77835V14.6509M11.9152 4.77835L13.5515 3.71169V1H3.82432V3.71169L5.55158 4.77835M5.55158 4.77835V28.5709H14.1964M14.1964 28.5709V14.6509M14.1964 28.5709L17.2958 33H18.0231M14.1964 14.6509H11.9152M14.1964 14.6509L17.2958 10.3122H18.0231M30.2533 33L33.08 29.9268V13.2951L30.2533 10.3122M30.2533 33H18.0231M30.2533 33V10.3122M30.2533 10.3122H18.0231M18.0231 33V12.8431M18.0231 10.3122V12.8431M18.0231 12.8431H27.9806M18.0231 16.4587H27.9806M18.0231 19.7127H27.9806M18.0231 23.3283H27.9806M18.0231 26.9439H27.9806M18.0231 30.5595H27.9806M2.72489 17.0011H1.08002V26.9439H2.72489V17.0011Z" stroke="neutral-900"/>
</svg>
