<svg viewBox="0 0 34 34" fill="none" xmlns="http://www.w3.org/2000/svg">
<path d="M20.631 28.5556C20.8878 29.0836 20.6428 28.7694 20.631 29.3488C20.6801 30.2712 20.3337 31.174 19.6677 31.8587C19.0018 32.5434 18.0709 32.9539 17.0798 33C16.0896 32.9514 15.1604 32.5401 14.4951 31.856C13.8297 31.1719 13.4822 30.2706 13.5286 29.3488C13.5279 28.7853 13.2757 29.0677 13.5286 28.5556M15.3022 3.83465C15.2466 2.79074 15.2595 1 17.08 1C18.9006 1 18.9525 2.80036 18.9006 3.83465M1.08002 28.5556H33.08V26.5637C29.7871 25.089 28.569 20.7221 27.289 16.1159C25.5858 9.98707 23.831 3.6667 17.1007 3.6667C10.3703 3.6667 8.62582 9.99665 6.93292 16.1159C5.60131 20.7126 4.39357 25.0794 1.08002 26.5637V28.5556Z"/>
</svg>
