<svg width="38" height="39" viewBox="0 0 38 39" fill="none" xmlns="http://www.w3.org/2000/svg">
<path d="M22.9948 32C23.2838 32.594 23.0082 32.2405 22.9948 32.8924C23.0501 33.9301 22.6603 34.9458 21.9112 35.7161C21.162 36.4863 20.1147 36.9482 18.9997 37C17.8858 36.9453 16.8405 36.4826 16.0919 35.713C15.3434 34.9434 14.9525 33.9294 15.0046 32.8924C15.0038 32.2584 14.7201 32.5761 15.0046 32M17 4.18898C16.9374 3.01458 16.9519 1 19 1C21.0481 1 21.1066 3.02541 21.0481 4.18898M1 32H37V29.7592C33.2955 28.1001 31.9252 23.1874 30.4852 18.0054C28.569 11.1105 26.5948 4.00003 19.0232 4.00003C11.4516 4.00003 9.48903 11.1212 7.58452 18.0054C6.08645 23.1766 4.72774 28.0893 1 29.7592V32Z" stroke-width="2"/>
</svg>
