<svg width="34" height="34" viewBox="0 0 34 34" fill="none" xmlns="http://www.w3.org/2000/svg">
<path d="M33 31.074L22.8007 21.5673C22.2536 22.1871 21.6449 22.7525 20.9839 23.2538L31.097 33L33 31.074Z" fill="black"/>
<path d="M22.8007 21.5673C24.8163 19.2838 25.9972 16.2617 25.889 12.984C25.6634 6.14452 19.9103 0.782167 13.0393 1.00681C6.16828 1.23145 0.78116 6.95801 1.00684 13.7974C1.23252 20.6369 6.98554 25.9992 13.8566 25.7746C16.5409 25.6868 18.9987 24.7593 20.9839 23.2538M22.8007 21.5673L33 31.074L31.097 33L20.9839 23.2538M22.8007 21.5673C22.2536 22.1871 21.6449 22.7525 20.9839 23.2538" stroke="black"/>
</svg>
