<svg viewBox="0 0 36 36" fill="none" xmlns="http://www.w3.org/2000/svg">
<path fill-rule="evenodd" clip-rule="evenodd" d="M18 24.17C16.7854 24.166 15.5991 23.8025 14.5908 23.1252C13.5825 22.4479 12.7973 21.4872 12.3343 20.3643C11.8713 19.2413 11.7512 18.0064 11.9892 16.8153C12.2271 15.6242 12.8124 14.5302 13.6713 13.6713C14.5302 12.8124 15.6242 12.2271 16.8153 11.9892C18.0064 11.7512 19.2413 11.8713 20.3643 12.3343C21.4872 12.7973 22.4479 13.5825 23.1252 14.5908C23.8025 15.5991 24.166 16.7854 24.17 18C24.1726 18.811 24.0149 19.6145 23.7057 20.3643C23.3966 21.1141 22.9422 21.7953 22.3687 22.3687C21.7953 22.9422 21.1141 23.3966 20.3643 23.7057C19.6145 24.0149 18.811 24.1726 18 24.17ZM20.72 35H15.32C14.32 32.28 14.21 31.16 12.81 30.57C11.41 29.98 10.35 30.8 7.89 32L4.08 28.15C5.32 25.54 6.02 24.65 5.43 23.24C4.84 21.83 3.74 21.69 1 20.72V15.32C3.7 14.32 4.85 14.21 5.43 12.81C6.01 11.41 5.33 10.52 4.08 7.89L7.89 4.08C10.36 5.25 11.39 6.02 12.81 5.43C14.23 4.84 14.34 3.75 15.33 1H20.72C21.72 3.72 21.84 4.85 23.24 5.43C24.64 6.01 25.66 5.26 28.15 4.08L32 7.89C30.76 10.51 30.07 11.41 30.65 12.81C31.23 14.21 32.35 14.35 35.08 15.32V20.72C32.38 21.72 31.24 21.83 30.65 23.24C30.06 24.65 30.72 25.45 32.01 28.15L28.15 32C25.7 30.84 24.65 30.06 23.25 30.65C21.85 31.24 21.72 32.24 20.72 35Z" stroke-miterlimit="10"/>
</svg>
